<svg xmlns="http://www.w3.org/2000/svg" viewBox="0 0 250 250" height="400" width="400"><g transform="scale(1.25)"><defs></defs><path d="M52.732 0a36.157 36.157 0 0 1-1 17.3 14.4 14.4 0 0 0 6.678-5.743c-.4 6.077-2.47 12.488-6.41 17.162a23.234 23.234 0 0 0 8.28-1.736 22.225 22.225 0 0 1-13.157 11.148 44.072 44.072 0 0 0 9.349 1.536 13.735 13.735 0 0 1-10.618 4.608 9.973 9.973 0 0 0 6.077.267 30.266 30.266 0 0 1-8.414 7.279 14.9 14.9 0 0 1-7.546-4.207 54.343 54.343 0 0 1-.535-11.887 16.278 16.278 0 0 1 .735-4.074 21.011 21.011 0 0 1 2.938-5.008C44.652 18.832 49.326 8.882 52.732 0z"></path><path d="m85.387 118.667-.668-1.536a32.628 32.628 0 0 0 17.229-19.1c.935-2.8.935-4.875.067-6.344-1.269-2.137-4.207-2.738-6.544-2.6a27.822 27.822 0 0 0-3.406.467 24.305 24.305 0 0 1-4.942.467c-2.938-.066-6.544-1.669-7.345-4.808a9.711 9.711 0 0 1 .267-4.607 13.05 13.05 0 0 0 .4-2.6 8.172 8.172 0 0 0-3.272-6.277 29.6 29.6 0 0 0-6.811-3.806l.668-1.536a28.1 28.1 0 0 1 7.279 4.073 9.936 9.936 0 0 1 3.873 7.613A14.152 14.152 0 0 1 81.714 81a8.328 8.328 0 0 0-.267 3.807c.6 2.337 3.406 3.472 5.743 3.539a22.408 22.408 0 0 0 4.608-.468 33.437 33.437 0 0 1 3.606-.467c3.74-.2 6.745 1.069 8.147 3.473 1.135 1.936 1.135 4.474.067 7.746a34.957 34.957 0 0 1-18.231 20.037z" fill="#643cff"></path><path d="M62.348 192.458c2.338-.6 4.675-1.4 7.012-2.137-7.279-15.827-27.379-58.165-28.247-64.642 1.8-.8 3.672-2.471 5.142-8.281 1.335-5.209 1.6-11.419 2.671-16.695a66.778 66.778 0 0 1 1.674-7.012c-2.938-.133-4.474 2.2-5.409 4.141a22.235 22.235 0 0 0-2.27 6.077c-.4-6.812-3.473-13.089-6.478-19.233a807.062 807.062 0 0 1-3.606-7.546c-1.336.267-1.8 1.2-2.137 2.471a12.725 12.725 0 0 0-.067 4.207 31.1 31.1 0 0 0 1.067 3.806c-2.071-3.071-3.139-4.808-5.076-6.477-1.869-1.67-4.407-2.671-6.678-3.873a6.106 6.106 0 0 0 1.069 5.208c-1.135-.734-2.471-1-3.606-1.736a6.731 6.731 0 0 0 1.068 6.144c.668.868 1.6 1.536 2.338 2.337a12.137 12.137 0 0 1 2.738 7.346 80.562 80.562 0 0 0-9.617-7.479c-1.869 5.542 4.608 8.681 6.411 13.355 2 5.142-.467 10.685.134 15.961.6 4.674 5.008 8.481 6.945 12.688 9.149 20.367 12.821 41.937 17.963 63.373a57.858 57.858 0 0 0 16.959-2.003z" fill="#e57b23"></path><path d="M34.368 127.214c1.2 1.136 3.272 1.336 4.808 1.4a16.893 16.893 0 0 0 2.6 0 16.148 16.148 0 0 1-.667-3c.337-.002-2.734 1.467-6.741 1.6zm-5.877-33.256a29.147 29.147 0 0 0-1.736-5.142 11.454 11.454 0 0 0-3.2-3.94c-.468-.4-.935-.734-1.4-1.135 1.536 2.07 3.005 4.074 4.341 6.277.726 1.336 1.327 2.672 1.995 3.94zm1.87-5.275a92.278 92.278 0 0 1 3.406 8.347c-.067-1.135-.2-2.337-.334-3.472a18.23 18.23 0 0 0-.935-4.207 7.426 7.426 0 0 0-.868-1.6 36.488 36.488 0 0 0-4.274-5.743c.2.467.4.868.6 1.336a385.314 385.314 0 0 1 2.405 5.339zm7.413 19.366a17.761 17.761 0 0 0-7.012 13.356c-1-4.007-2.137-7.947-2.939-11.954 3.077.134 6.945-1.936 9.951-1.402z" fill="#b2490f"></path><path d="M116.84 166.681c-6.678-.067-17.563-.267-22.638-5.543-2.471-2.6-2.4-8.28-2.337-11.753a44.283 44.283 0 0 1 2.2-12.554c2.2-6.812 5.81-13.022 9.75-18.966 3.673-5.542 8.014-10.684 9.817-17.229 1.87-6.945.8-14.224 0-21.369-1.069-9.883-1.469-20.034 1-29.717s8.081-18.9 16.762-23.773c8.681-4.942 21.436-4.742 28.782 2 6.21.534 11.686 4.608 14.958 9.883s4.475 11.62 4.475 17.831-1.136 12.354-2.271 18.431c-1.4 7.412-4.407 13.823-4.274 21.636A44.038 44.038 0 0 0 179.012 117c2.137 3.74 4.875 7.079 7.279 10.618a51.772 51.772 0 0 1 5.609 10.351 41.818 41.818 0 0 1 .267 29.984c.067-2.2-1.936-3.94-3.739-5.209a14.455 14.455 0 0 0-6.211-2.2c-8.748-1.335-17.563.935-26.177 2.672a202.79 202.79 0 0 1-39.2 3.465z"></path><path d="M187.559 189.653c4.074-16.094 5.209-33.39.2-49.216a27.508 27.508 0 0 0-4.341-8.882c-3.005-3.606-7.68-5.676-12.221-7.012-9.148-2.6-9.015-4.274-13.823-6.01a50.855 50.855 0 0 1-30.919 4.14 5.053 5.053 0 0 0-2.137.535c-.6.2-1.268.334-1.869.6-1.136.4-2.2.868-3.273 1.335a73.194 73.194 0 0 1-9.282 3.406A21.392 21.392 0 0 0 95.07 140.7c-3.806 7.746-5.342 16.294-7.813 24.575a101.718 101.718 0 0 1-10.618 23.64 102.465 102.465 0 0 1 33.79-.134c5.476.868 10.819 2.2 16.294 3.072a174.651 174.651 0 0 0 22.906 1.936c13.022.338 25.71.405 37.93-4.136z" fill="#14d29b"></path><path d="M110.964 144.243c1.135 2.471 2.337 4.875 3.672 7.212 1.136 2.071 2.471 4.007 3.607 6.01 2.27 3.807 4.474 7.68 7.546 10.819a14.993 14.993 0 0 0 4.874 3.539 11.841 11.841 0 0 0 5.877.868c4.207-.334 8.08-2.4 11.553-4.741a82.433 82.433 0 0 0 9.483-7.88c7.813-7.413 14.424-16.027 20.568-24.976 1.2-1.736 2.4-3.472 3.672-5.208a20.323 20.323 0 0 0-3.672-2.6 65.455 65.455 0 0 0-2.137 2.271 265.618 265.618 0 0 1-20.5 19.232 75.12 75.12 0 0 1-9.482 6.945 25.343 25.343 0 0 1-10.819 3.807 15.452 15.452 0 0 1-10.684-3.406c-3.072-2.4-5.142-5.743-7.279-8.949l-3.606-5.208c-1.336-2-2.538-4.007-3.74-6.077s-2.337-4.141-3.539-6.211a13.515 13.515 0 0 0-1.4.668c2.066 4.67 3.935 9.342 6.006 13.885zm-13.69 18.031a146.749 146.749 0 0 0 6.411 20.568c.734 1.8 1.469 3.606 2.27 5.342 1.469.2 2.938.4 4.474.6 3.206.534 6.411 1.2 9.683 1.8a37.8 37.8 0 0 1-2.871-3.606 81.852 81.852 0 0 1-8.882-16.5c-2.8-6.744-5.142-13.689-7.279-20.634-1.269-4.341-2.537-8.682-3.673-13.089a28.059 28.059 0 0 0-2.27 3.873 24.923 24.923 0 0 0-1.069 2.337 145.446 145.446 0 0 0 3.206 19.309zm69.717 31.453c2.071-2.939 4.007-6.011 5.877-9.016 4.14-6.544 7.947-13.289 11.62-20.167 2.07-3.806 4.006-7.613 5.943-11.486a72.213 72.213 0 0 0-2.671-12.421c-2.4 4.207-4.875 8.347-7.546 12.421-3.673 5.743-7.68 11.352-11.887 16.762a210.528 210.528 0 0 1-11.82 13.756 62.671 62.671 0 0 1-11.419 10.017c1.469.067 2.938.134 4.407.134 6.01.2 11.753.334 17.496 0z" fill="#008c6e"></path><path d="M112.232 72.389a8.468 8.468 0 0 0-.534 5.275 4.65 4.65 0 0 0 3.74 3.473 4.709 4.709 0 0 0 4.274-2.2 9.138 9.138 0 0 0 1.335-4.808 7.6 7.6 0 0 0-1.2-5.008c-3.074-3.811-6.413.329-7.615 3.268zm-3.806 19.165a8.586 8.586 0 0 0-.8 6.01c.8 2.805 3.405 4.742 6.21 5.61a7.943 7.943 0 0 0 5.943-.2c2.672-1.4 3.74-4.875 3.206-7.88s-2.271-5.61-3.94-8.081c-1.6-2.4-2.872-5.008-5.543-2.2a33.054 33.054 0 0 0-5.076 6.741z" fill="#fdb849"></path><path d="M120.98 69.317a2.948 2.948 0 0 1-2.337 1.469 2.483 2.483 0 0 1-1.335-.467 10.363 10.363 0 0 1-4.007-5.476 19.628 19.628 0 0 1-.868-9.216 9.234 9.234 0 0 1 1.135-3.472 4.042 4.042 0 0 1 2.938-1.937c3.54-.334 6.344 4.608 6.611 7.68.401 3.672.134 8.28-2.137 11.419z" fill="#e57b23"></path><path d="M118.176 65.377c.734-2.4 1.536-4.875 1.135-7.413-.334-1.869-2.137-5.475-4.474-5.475h-.267c1.669 2.07.8 5.409.734 7.813a18.122 18.122 0 0 0 .4 5.008 18.636 18.636 0 0 0 1.469 4.074 29.161 29.161 0 0 1 1.003-4.007z" fill="#b2490f"></path><path d="M106.489 167.816c-6.611-20.768-15.559-46.345-22.237-67.116-8.214-1.536-27.914-5.476-29.316-5.543l-2.271 2.4c6.545 21.3 16.428 44.676 23.774 65.778 2.671.541 23.372 3.48 30.05 4.481z" fill="#ff465a"></path><path d="M104.219 170.22c-6.611-20.768-15.56-46.344-22.238-67.113-8.213-1.536-27.913-5.476-29.316-5.543 7.012 22.772 13.69 45.611 21.5 68.115 2.674.601 23.376 3.54 30.054 4.541z" fill="#d70a32"></path><path d="M66.021 113.057c-.2-.734-.4-1.536-.6-2.27-.6-2.07-1.335-5.343-3.005-6.812a2.311 2.311 0 0 0-2.871-.133c-1.47 1.4-.334 4.14.133 5.743 1.2 3.739 1.937 6.411 3.072 10.351.4 1.335 1.2 3.2 2.872 3.4 1.268.134 1.669-.868 1.8-2a15.267 15.267 0 0 0-.268-3c-.331-1.806-.665-3.542-1.133-5.279z"></path><path d="M117.642 125.812c8.748-3.74 15.092-6.544 16.761-34.658a31.317 31.317 0 0 1 17.83-2.271c-.067 5.209.067 10.485 1.4 15.493s3.739 14.892 11.753 18.164c-10.819 7.947-22.839 8.948-32.121 22.438-3.065-11.62-10.148-12.288-15.623-19.166z" fill="#e57b23"></path><path d="M121.782 128.483a34.725 34.725 0 0 0 3.873 3.807 31.332 31.332 0 0 0 4.875 3.539c.4-1.536.8-3.072 1.269-4.608a16.7 16.7 0 0 1-3-1.736c-2.4-1.8-4.875-3.539-7.212-5.476-.8.4-1.6.8-2.471 1.135.863 1.136 1.731 2.271 2.666 3.339zm21.97 5.81c1.87-.935 3.673-1.87 5.409-2.938 4.675-3.206 9.082-6.745 13.557-10.217a12.488 12.488 0 0 1-2-1.737c-.534.4-1.068.735-1.536 1.136-1.8 1.335-3.539 2.6-5.409 3.806-1.8 1.135-3.606 2.137-5.543 3.139-1.869.934-3.806 1.736-5.676 2.6a24.388 24.388 0 0 1-4.741 1.937c0 1.6.067 3.205.133 4.808 1.933-.727 3.87-1.599 5.806-2.534z" fill="#b2490f"></path><path d="M141.749 102.773a15.876 15.876 0 0 1-7.212 1.469 4.485 4.485 0 0 1-2.07-.6c.534-3.806 1.6-7.412 1.869-12.487a31.317 31.317 0 0 1 17.83-2.271c0 2 0 4.007.134 6.01a32.147 32.147 0 0 1-10.551 7.879z"></path><path d="M114.7 74.86a28.552 28.552 0 0 0 .935 6.21c1.469 5.476 4.808 10.818 9.75 13.757 9.75 5.809 23.172 3.272 31.787-3.54 7.279-5.676 10.952-14.023 14.09-22.5 2.338-6.278 4.408-13.356 3.807-20.1-.668-7.68-6.945-13.423-13.089-17.363-6.01-3.939-13.356-7.011-20.635-6.544a15.872 15.872 0 0 0-9.482 3.606c-7.547 6.545-12.555 18.031-14.825 27.313-1.133 6.272-2.602 12.817-2.338 19.161z" fill="#e57b23"></path><path d="M176.007 48.749c-.668-7.68-7.48-13.89-13.557-17.9-6.01-3.94-13.623-7.079-20.9-6.611a17.735 17.735 0 0 0-10.017 3.873c-7.279 6.344-12.021 16.9-14.158 26.912a54.5 54.5 0 0 1 3.74-6.344c1.87-2.8 3.606-5.676 5.61-8.347a32.688 32.688 0 0 1 6.878-7.346 12.087 12.087 0 0 1 3.806-1.937 11.649 11.649 0 0 1 3.74-.2c2.2.2 4.808 1.068 5.543 3.272 3.2-1.936 7.679-.334 10.684 1.336a16.4 16.4 0 0 1 7.346 7.546 22.184 22.184 0 0 1 1.536 10.417c-.2 4.141-1 8.214-1.269 12.421a36.365 36.365 0 0 0 1 11.086 12.8 12.8 0 0 0 2.2-.4c1.136-2.471 2.6-5.075 3.606-7.613 2.275-6.409 4.746-13.42 4.212-20.165z"></path><path d="M137.872 51.743a2.003 1.536-74.313 1 0 1.083-3.856 2.003 1.536-74.313 1 0-1.083 3.856" fill="#d70a32"></path><path d="M140.947 61.838c1.937-2 3.874-4.007 6.812-4.274 5.342-.735 9.282 4.274 8.281 9.282a56.113 56.113 0 0 1-11.219-3.539m-26.311-8.682c1.936-2 3.873-4.006 6.811-4.273 5.342-.735 9.282 4.273 8.281 9.282a56.2 56.2 0 0 1-11.219-3.534" fill="#b2490f"></path><path d="M156.04 66.846a10.465 10.465 0 0 0-6.34-6.546 9.17 9.17 0 0 0-8.815 1.536s1.469 2.537 6.344 4.273a13.837 13.837 0 0 0 8.811.737zm-22.505-7.279a10.465 10.465 0 0 0-6.344-6.544 9.17 9.17 0 0 0-8.815 1.536s1.469 2.537 6.344 4.274c5.142 2.003 8.815.734 8.815.734z" fill="#ffffff"></path><path d="M148.427 64.375a14.851 14.851 0 0 1 1.6-3.873.944.944 0 0 0-.4-.134 9.176 9.176 0 0 0-8.815 1.536s1.469 2.538 6.344 4.274a3.694 3.694 0 0 0 .8.267 18.8 18.8 0 0 1 .471-2.07zm-22.705-8.548a12 12 0 0 1 1.335-2.6c.067-.067.067-.133.134-.133a9.173 9.173 0 0 0-8.815 1.535s1.469 2.538 6.344 4.274c.134.067.2.067.334.134a16.071 16.071 0 0 1 .668-3.21zM16.271 103.575a25.091 25.091 0 0 1-5.543-6.144 13.168 13.168 0 0 1-2.07-8.214l1.87.2a11.372 11.372 0 0 0 1.8 7.079 24.626 24.626 0 0 0 5.208 5.743zm-6.945-1.269a15.021 15.021 0 0 1-4.141-9.95l1.87-.067a12.951 12.951 0 0 0 3.673 8.681zm33.723-10.551a41.87 41.87 0 0 0-7.412-18.1l1.536-1.069a44.409 44.409 0 0 1 7.746 18.9zm2.003-7.613a21.415 21.415 0 0 0-2.938-7.742l1.6-1a23.882 23.882 0 0 1 3.2 8.414zm88.216-34.792c-1.937-1.069-3.74-2.337-5.743-3.206a10.61 10.61 0 0 0-6.411-.934 6.479 6.479 0 0 1 5.943-2.471 17.188 17.188 0 0 1 6.411 2.07 10.3 10.3 0 0 1 2.605 1.536c-.873 1.135-1.873 1.803-2.805 3.005zm26.845 13.022c-.8-3.94-3.472-5.676-6.277-6.878a24.447 24.447 0 0 0-8.748-1.6c.267-1.469.6-2.938.935-4.408a24.5 24.5 0 0 1 8.547 2.672c1.67.868 3.74 2.27 4.608 4.14s.935 3.069.935 6.074z"></path><path d="M140.68 80.2c-2 2.27-3.205 3.539-6.143 4.274a9.656 9.656 0 0 1-4.141.2 5.231 5.231 0 0 1-3.4-2.27 3.8 3.8 0 0 1-.067-3.94 5.656 5.656 0 0 0 2.337 1 27.44 27.44 0 0 0 11.414.736z" fill="#b2490f"></path><path d="M142.884 79.467A13.249 13.249 0 0 1 135.2 78.2c-1.6-.869-3-2.137-4.541-3.072-1.669-.935-5.475-2.071-6.477.467a2.257 2.257 0 0 0 .133 1.736c1.6 3.206 7.613 3.874 10.685 4.207a13.015 13.015 0 0 0 7.88-2.07"></path><path d="M130.931 70.185c-2.071-.8-4.141-1.536-5.61-3.2a143.95 143.95 0 0 0 9.683-10.485c-1.269 4.67-2.337 9.077-4.073 13.685z" fill="#b2490f"></path><path d="M159.512 79.467a3.015 3.015 0 0 0 .2 2.738 2.73 2.73 0 0 0 1.136.8 9.952 9.952 0 0 0 6.811 0 19.31 19.31 0 0 0 7.947-4.742 9.245 9.245 0 0 0 2.137-2.938 4.109 4.109 0 0 0-.134-3.539c-1.8-3.072-7.479-2.4-10.083-.868-3.206 1.938-6.812 4.876-8.014 8.549z" fill="#e57b23"></path><path d="M162.985 78.2a11.7 11.7 0 0 1 5.409 1.068 3.974 3.974 0 0 1-.134-2.337c.4-1.536 2-2.07 3.406-2.338s2.871-.333 4.274-.534c-4.474-2.405-10.284-.068-12.955 4.141z" fill="#b2490f"></path><path d="M161.115 85.21a8.458 8.458 0 0 0-.534 5.276 4.646 4.646 0 0 0 3.739 3.472 4.7 4.7 0 0 0 4.274-2.2 9.141 9.141 0 0 0 1.336-4.808 7.616 7.616 0 0 0-1.2-5.009c-3.141-3.809-6.413.331-7.615 3.269z" fill="#ffd340"></path><path d="M183.619 141.038a58.561 58.561 0 0 0 .668-8.348 15.244 15.244 0 0 0-2.2-8.013c-2.474-3.677-21.64-18.965-25.446-25.577-.4 7.012-3.339 13.557-6.612 19.767-3.338 6.144-7.145 12.154-9.482 18.7-3.94 11.086-3.539 23.306-1.736 34.926-1.4-8.681 3.138-16.829 8.08-24.108 4.942-7.212 10.885-13.956 13.957-22.17-1.469 6.878-5.61 12.354-8.682 18.631-4.073 8.348-5.676 18.365-2.137 26.912-.8-6.477 1.6-12.955 4.541-18.765s6.745-11.085 9.951-16.761c2.871-5.076 5.142-10.685 5.609-16.495a15.981 15.981 0 0 1 6.21 7.079 33.377 33.377 0 0 1 2.6 11.953c.267 4.074.133 8.214.6 12.288a46.537 46.537 0 0 0 5.676 17.83c-2.865-8.887-2.732-18.5-1.597-27.849z"></path><path d="M157.242 104.376a8.591 8.591 0 0 0-.8 6.01c.8 2.805 3.406 4.741 6.211 5.61a7.943 7.943 0 0 0 5.943-.2c2.671-1.4 3.74-4.875 3.205-7.88s-2.27-5.609-3.939-8.08c-1.6-2.4-2.872-5.008-5.543-2.2a35.68 35.68 0 0 0-5.077 6.74z" fill="#ffd340"></path><path d="m147.492 197.8-2.6-1.8a140.948 140.948 0 0 1-21.369-18.965c-6.344-6.878-12.221-14.358-15.493-23.239-1.936-5.209 1.069-17.229-14.758-25.777l2.128 6.341c-2.938-.2-5.877-2.872-8.147-4.675-5.81-4.674-8.948-17.563-17.3-14.29 3.94 6.41 7.479 13.222 11.486 19.566-3.606-2.671-6.144-6.344-9.215-9.55s-5.944-7.746-11.086-5.876c1.136 1.936 2.137 4.274 3.272 6.21-1.2-1.2-1.869-2.07-4.273-1a39.807 39.807 0 0 0 9.95 16.761c-3.139-3.072-8.348-6.277-12.021-2.738 7.079 4.541 11.82 10.618 17.029 16.628a72.842 72.842 0 0 0 12.955 11.887 74.387 74.387 0 0 0 7.212 3.806c2.471 1.269 5.076 2.2 7.279 3.807a27.547 27.547 0 0 1 4.408 4.407c4.674 5.543 8.614 11.553 13.222 17.229 1.937 2.338 5.342 2.939 8.348 3.339 6.418.867 12.428-2.939 18.973-2.071z" fill="#e57b23"></path><path d="m72.632 144.577-1.2-1.4c-.734-.868-.734-.935-1.469-1.737-2-2.136-4.741-3.806-6.878-4.073a34.624 34.624 0 0 1 3.806 3.2c1.8 1.737 3.873 4.408 6.545 5.076-.134-.2-.267-.334-.4-.535-.067-.066-.067-.133-.134-.133-.069-.131-.202-.264-.27-.398zM70.3 134.493c-2.27-3.071-6.077-9.015-5.943-8.814a4.464 4.464 0 0 0-1.87-1.4c.935 2.271 1.87 4.474 3 6.611a21.9 21.9 0 0 0 3.005 4.742c1.4 1.6 3.272 2.4 5.075 3.405.334.2.735.468 1.069.668a64.055 64.055 0 0 1-4.336-5.212z" fill="#b2490f"></path><path d="M27.623 43.74a27.747 27.747 0 0 0 1.469 9.016 16.526 16.526 0 0 0 4.074 6.944c2.805 2.6 6.878 3.606 10.751 3.405A37.262 37.262 0 0 0 55.27 60.3a9.809 9.809 0 0 0 8.28 3.673 6.016 6.016 0 0 1-3.673-3.94 19.242 19.242 0 0 0 4.942 2.537 8.126 8.126 0 0 0 5.61-.467 10.907 10.907 0 0 1-7.146-2.671A13.354 13.354 0 0 0 75.3 57.363c-10.217.4-20.768-3.539-27.78-11.018 1.269-4.675 1.069-10.752 4.875-13.757A77.271 77.271 0 0 0 73.167 6.745 115.171 115.171 0 0 1 54.6 22.839c-3.473 2.4-7.079 4.607-10.151 7.479s-5.674 6.482-6.475 10.618c-.668-3.874-4.608-6.678-8.414-7.68a9.838 9.838 0 0 0-5.009-.267 5.122 5.122 0 0 0-3.739 3.139 5.166 5.166 0 0 0 1.4 5.142 10.946 10.946 0 0 0 5.411 2.47z" fill="#9778ff"></path><path d="M73.033 6.611a35.7 35.7 0 0 1-4.942 16.628 14.316 14.316 0 0 0 7.814-4.073 29.955 29.955 0 0 1-10.218 15.225 22.647 22.647 0 0 0 8.481.2 21.991 21.991 0 0 1-15.359 7.813 38.389 38.389 0 0 0 8.748 3.606 13.763 13.763 0 0 1-11.352 2.07 9.135 9.135 0 0 0 5.876 1.6 32.634 32.634 0 0 1-9.881 5.213 15.4 15.4 0 0 1-6.411-5.81 58.232 58.232 0 0 1 2.2-11.687 16.091 16.091 0 0 1 1.671-3.806 19.978 19.978 0 0 1 4.007-4.207c7.212-6.277 14.09-14.892 19.366-22.772zM30.227 35.86a2.865 2.865 0 0 0-2.671-2.07 4.656 4.656 0 0 0-3.272 1.336c2.07-1.002 3.94-.601 5.943.734z" fill="#643cff"></path><path d="M21.613 39.467c-2.8-.468-4.808-2.538-6.812-4.541a18.322 18.322 0 0 0 6.612.2 3.345 3.345 0 0 1 .6 2.27 7.133 7.133 0 0 1-.4 2.071z" fill="#d70a32"></path></g></svg>